<?xml version="1.0" encoding="UTF-8"?>
<svg width="50px" height="38px" viewBox="0 0 50 38" version="1.1" xmlns="http://www.w3.org/2000/svg" xmlns:xlink="http://www.w3.org/1999/xlink">
    <!-- Generator: Sketch 51.3 (57544) - http://www.bohemiancoding.com/sketch -->
    <title>mail</title>
    <desc>Created with Sketch.</desc>
    <g id="Page-1" stroke="none" stroke-width="1" fill="none" fill-rule="evenodd">
        <g id="Desktop---Standard" transform="translate(-1614.000000, -519.000000)" fill="#CD2C26">
            <g id="Sidebar" transform="translate(1260.000000, 173.000000)">
                <g id="Contact-Options" transform="translate(64.000000, 334.000000)">
                    <g id="Email" transform="translate(246.000000, 12.000000)">
                        <g id="mail" transform="translate(44.000000, 0.000000)">
                            <path d="M47.6938776,22.4413265 C48.7646633,22.4413265 49.6326531,21.5733367 49.6326531,20.502551 L49.6326531,7.80357143 C49.6326531,3.52740816 46.1537143,0.0484693878 41.877551,0.0484693878 L7.75510204,0.0484693878 C3.47893878,0.0484693878 0,3.52740816 0,7.80357143 L0,30.1964286 C0,34.4725918 3.47893878,37.9515306 7.75510204,37.9515306 L41.877551,37.9515306 C46.1537143,37.9515306 49.6326531,34.4725918 49.6326531,30.1964286 C49.6326531,29.1256429 48.7646633,28.2576531 47.6938776,28.2576531 C46.6230918,28.2576531 45.755102,29.1256429 45.755102,30.1964286 C45.755102,32.3345102 44.0156327,34.0739796 41.877551,34.0739796 L7.75510204,34.0739796 C5.61702041,34.0739796 3.87755102,32.3345102 3.87755102,30.1964286 L3.87755102,8.21439796 L20.721148,18.688148 C21.9841633,19.473449 23.4002449,19.866148 24.8163265,19.866148 C26.2324082,19.866148 27.6484898,19.473449 28.9115051,18.688148 L45.755102,8.21439796 L45.755102,20.502551 C45.755102,21.5733367 46.6230918,22.4413265 47.6938776,22.4413265 Z M26.8638673,15.3952347 C25.600949,16.1805357 24.0317041,16.1806327 22.7687857,15.3952347 L5.49536224,4.65422449 C6.13205612,4.19609184 6.91260714,3.92602041 7.75510204,3.92602041 L41.877551,3.92602041 C42.7200459,3.92602041 43.5005969,4.19618878 44.1372908,4.65432143 L26.8638673,15.3952347 Z" id="Shape"></path>
                        </g>
                    </g>
                </g>
            </g>
        </g>
    </g>
</svg>