<?xml version="1.0" encoding="UTF-8"?>
<svg width="44px" height="44px" viewBox="0 0 44 44" version="1.1" xmlns="http://www.w3.org/2000/svg" xmlns:xlink="http://www.w3.org/1999/xlink">
    <!-- Generator: Sketch 51.3 (57544) - http://www.bohemiancoding.com/sketch -->
    <title>phone</title>
    <desc>Created with Sketch.</desc>
    <g id="Page-1" stroke="none" stroke-width="1" fill="none" fill-rule="evenodd">
        <g id="Desktop---Multiple-Phone-Numbers" transform="translate(-1360.000000, -516.000000)" fill="#F90E10">
            <g id="Sidebar" transform="translate(1260.000000, 173.000000)">
                <g id="Contact-Options" transform="translate(21.000000, 334.000000)">
                    <g id="Call" transform="translate(43.000000, 9.000000)">
                        <g id="phone" transform="translate(36.000000, 0.000000)">
                            <path d="M23.0310781,5.25009375 C23.0600391,5.25009375 23.0882266,5.24992187 23.1170156,5.24992187 C27.3056094,5.24992187 31.2305469,6.86932812 34.1759687,9.81475 C37.1457109,12.7844922 38.7701016,16.7428594 38.7499922,20.9605859 C38.7455234,21.9097656 39.5113125,22.6829453 40.4605781,22.6875 C40.4634141,22.6875 40.4660781,22.6875 40.4689141,22.6875 C41.4141406,22.6875 42.1828516,21.9233438 42.1874062,20.9769141 C42.2118984,15.8346719 40.2299219,11.0073906 36.606625,7.38400781 C33.0115156,3.7888125 28.2244531,1.81242187 23.1175312,1.81242187 C23.0861641,1.81242187 23.0545391,1.81250781 23.0230859,1.81259375 C22.0738203,1.81714844 21.3080312,2.59032812 21.3125,3.53950781 C21.3170547,4.4859375 22.0856797,5.25009375 23.0310781,5.25009375 Z" id="Shape"></path>
                            <path d="M43.9956172,35.4537734 C43.9342578,33.7517813 43.2252734,32.1634844 41.999375,30.9814141 C39.5990547,28.6668594 37.5880313,27.3307031 35.6704219,26.7765781 C33.0278438,26.0128516 30.5806875,26.7073984 28.3965859,28.8404531 C28.3933203,28.8436328 28.3899688,28.8468984 28.3867031,28.8501641 L26.0607188,31.158875 C24.6160234,30.3472812 21.8075859,28.5612422 18.7359219,25.4894922 L18.5097344,25.2634766 C15.4582656,22.2120938 13.6608828,19.3876719 12.8431016,17.9370469 L15.1495781,15.6132109 C15.1528438,15.6099453 15.1560234,15.6066797 15.1592891,15.6033281 C17.2923438,13.4193125 17.9868047,10.9719844 17.2231641,8.32957813 C16.6690391,6.41205469 15.3329688,4.40094531 13.0183281,2.000625 C11.8362578,0.774726563 10.2479609,0.0657421875 8.54614063,0.0043828125 C6.84466406,-0.056890625 5.20901563,0.5355625 3.94152344,1.673375 L3.89219531,1.71771875 C3.86925,1.73825781 3.84690625,1.75948438 3.82516406,1.78122656 C1.30203906,4.30417969 -0.0205390625,7.83638281 0.0002578125,11.9958437 C0.0354921875,19.061625 3.91892187,27.1422422 10.3882969,33.6115312 C10.3937109,33.6169453 10.3990391,33.6221875 10.4044531,33.6275156 C11.6206406,34.8419844 13.0014844,36.0437344 14.509,37.1996797 C15.2622422,37.7772656 16.3411016,37.6347812 16.9187734,36.8815391 C17.4963594,36.1282109 17.3539609,35.0493516 16.6006328,34.4717656 C15.2053516,33.4020156 13.9330469,32.2947109 12.8190391,31.1807031 C12.8137109,31.175375 12.8083828,31.1700469 12.8029688,31.1648047 C6.96910156,25.3243203 3.46852344,18.1533516 3.43767188,11.9785703 C3.4216875,8.77516406 4.38530469,6.10139063 6.22471094,4.24299219 L6.23785938,4.23113281 C7.48721875,3.10982031 9.37870313,3.17805469 10.5440156,4.38650781 C14.9939453,9.00117969 14.6716797,11.1797813 12.7054297,13.1960469 L9.51938281,16.4060703 C9.01974219,16.9094922 8.88060938,17.6681484 9.1691875,18.3161172 C9.25005469,18.4977891 11.2066797,22.8215625 16.0797656,27.6946484 L16.3059531,27.9205781 C21.1784375,32.7931484 25.5022109,34.7496875 25.6838828,34.8306406 C26.3318516,35.1193047 27.0905078,34.9800859 27.5939297,34.4804453 L30.8033516,31.2949141 C32.8199609,29.3284063 34.9986484,29.0057109 39.6134922,33.4558125 C40.8219453,34.621125 40.8901797,36.5126094 39.7690391,37.7617109 L39.7569219,37.7752031 C37.9135625,39.5995703 35.2683203,40.5624141 32.0997188,40.5624141 C32.0736797,40.5624141 32.0474688,40.5624141 32.0213437,40.5622422 C29.4886797,40.5496094 26.5558906,39.8553203 23.5402578,38.5545703 C22.6686797,38.1785078 21.6572813,38.5803516 21.2813047,39.4520156 C20.9053281,40.3235938 21.3071719,41.3349922 22.17875,41.7109687 C25.6645469,43.2145313 28.9703047,43.9845312 32.0041563,43.9997422 C32.0363828,43.9998281 32.0684375,43.9999141 32.1005781,43.9999141 C36.2181875,43.9998281 39.7153281,42.6782812 42.2186875,40.1748359 C42.2405156,40.1530078 42.2616563,40.13075 42.2821953,40.1078047 L42.3267969,40.0582187 C43.4642656,38.7908984 44.0569766,37.1556797 43.9956172,35.4537734 Z" id="Shape"></path>
                            <path d="M31.7502109,12.2503047 C29.9065938,10.4066016 28.1371406,9.91735938 27.2867031,9.68214844 C26.3715547,9.4290625 25.4250391,9.96565625 25.1720391,10.8806328 C24.9190391,11.7955234 25.4555469,12.7422969 26.3705234,12.9952969 C27.0659297,13.187625 28.1167734,13.4782656 29.3195547,14.6809609 C30.4773906,15.8387969 30.7849609,16.8840547 30.9885469,17.5757656 L31.0133828,17.6598984 C31.2345859,18.4072969 31.9189922,18.8912969 32.6607188,18.8912969 C32.8222813,18.8913828 32.9865938,18.8683516 33.1493594,18.8201406 C34.0595234,18.5507266 34.5790156,17.5944141 34.3095156,16.68425 L34.2862266,16.6053594 C34.0211094,15.7045625 33.5276563,14.02775 31.7502109,12.2503047 Z" id="Shape"></path>
                        </g>
                    </g>
                </g>
            </g>
        </g>
    </g>
</svg>